<svg xmlns="http://www.w3.org/2000/svg" xmlns:xlink="http://www.w3.org/1999/xlink" width="86" height="22" viewBox="0 0 86 22"><defs><clipPath id="a"><rect width="20" height="20" fill="#fff"/></clipPath><clipPath id="c"><rect width="86" height="22"/></clipPath></defs><g id="b" clip-path="url(#c)"><path d="M.822-9.454V0H6.874V-1.648H2.821V-9.454Zm7.34,2.364V0h1.967V-7.091ZM8.088-9A1.035,1.035,0,0,0,9.15-8a1.036,1.036,0,0,0,1.066-1A1.035,1.035,0,0,0,9.15-9.995,1.034,1.034,0,0,0,8.088-9ZM15.83,0l2.479-7.091H16.227L14.759-2.017h-.074L13.212-7.091H11.135L13.614,0Zm6.482.138c1.754,0,2.936-.854,3.213-2.17l-1.819-.12a1.335,1.335,0,0,1-1.362.822,1.542,1.542,0,0,1-1.607-1.708v0h4.829v-.54c0-2.41-1.459-3.6-3.333-3.6a3.358,3.358,0,0,0-3.439,3.67A3.323,3.323,0,0,0,22.311.138Zm-1.574-4.4a1.5,1.5,0,0,1,1.528-1.454,1.4,1.4,0,0,1,1.45,1.454Zm14.837-.466c0-3.093-1.92-4.856-4.427-4.856S26.72-7.82,26.72-4.727,28.627.129,31.147.129,35.574-1.634,35.574-4.727Zm-6.828,0c0-2,.946-3.088,2.4-3.088s2.4,1.085,2.4,3.088-.951,3.088-2.4,3.088S28.747-2.724,28.747-4.727ZM38.982,0V-4.1a1.308,1.308,0,0,1,1.343-1.45,1.216,1.216,0,0,1,1.26,1.385V0h1.967V-4.515a2.391,2.391,0,0,0-2.447-2.668A2.142,2.142,0,0,0,38.972-5.84h-.083V-7.091H37.015V0ZM48.3.138A2.873,2.873,0,0,0,51.469-2.6H49.613a1.263,1.263,0,0,1-1.288,1.182c-.919,0-1.514-.771-1.514-2.128,0-1.339.6-2.105,1.514-2.105a1.264,1.264,0,0,1,1.288,1.182h1.856a2.875,2.875,0,0,0-3.176-2.714,3.359,3.359,0,0,0-3.481,3.665A3.351,3.351,0,0,0,48.3.138Zm7.663,0c1.754,0,2.936-.854,3.213-2.17l-1.819-.12A1.335,1.335,0,0,1,56-1.33a1.542,1.542,0,0,1-1.607-1.708v0H59.22v-.54c0-2.41-1.459-3.6-3.333-3.6a3.358,3.358,0,0,0-3.439,3.67A3.323,3.323,0,0,0,55.966.138Zm-1.574-4.4a1.5,1.5,0,0,1,1.528-1.454,1.4,1.4,0,0,1,1.45,1.454Z" transform="translate(25 16)" fill="#fafcff"/><g transform="translate(1 1)" clip-path="url(#a)"><path d="M10,0C.3,0,0,.3,0,10S.3,20,10,20s10-.3,10-10S19.7,0,10,0Zm.512,6.528a3.925,3.925,0,1,1,1.962,7.325h-5.4A2.945,2.945,0,0,1,4.13,10.909v-2.7A3.926,3.926,0,0,0,3.6,6.245H5.112a.982.982,0,0,1,.982.982v3.681a.982.982,0,0,0,.982.982h2a3.926,3.926,0,0,1,1.434-5.362ZM13.7,11.443a2,2,0,0,0,.7-1.163A1.963,1.963,0,0,0,12.1,8a2.01,2.01,0,0,0-1.588,2.081,3.894,3.894,0,0,0,.528,1.811h1.372A2,2,0,0,0,13.7,11.443Z" fill="#fafcff" fill-rule="evenodd"/></g></g></svg>